<?xml version="1.0" encoding="UTF-8"?>
<!-- Generator: Adobe Illustrator 22.1.0, SVG Export Plug-In . SVG Version: 6.00 Build 0)  -->
<svg version="1.1" id="Calque_1" xmlns="http://www.w3.org/2000/svg" xmlns:xlink="http://www.w3.org/1999/xlink" x="0px" y="0px" viewBox="0 0 100 81.6" style="enable-background:new 0 0 100 81.6;" xml:space="preserve">
<style type="text/css">
	.st0{fill:#ED7269;}
	.st1{fill:#FFFFFF;}
</style>
<title/>
<g id="icomoon-ignore">
</g>
<path class="st0" d="M87.6,77.7H12.4C5.6,77.7,0,72.2,0,65.3v-49C0,9.4,5.6,3.9,12.4,3.9h75.2c6.9,0,12.4,5.6,12.4,12.4v49  C100,72.2,94.4,77.7,87.6,77.7z"/>
<path class="st1" d="M16.5,68.9c-2.7,0-4.4-0.2-5.1-0.9c-0.9-0.7-1.1-1.5-1.1-3.1c0-2.6,0.2-4.2,3-4.5c1.9-0.1,4-0.2,6.4-0.4  c4.9-0.7,12.1-3,12.1-10c0-4.9-2.9-7.6-9-7.6h-2.6c-1.2,0-1.7-0.2-2-0.3c-0.6-0.4-0.7-0.7-0.7-1.9c0-2,0.3-4.1,1-5.1  c0.4-0.9,1.2-1.1,2.6-1.1h1.3c5.9,0,8.8-2.5,8.8-6.5c0-3.6-2.6-5.6-6.5-5.6c-4.1,0-6.3,1.4-7.5,2.3c-1.2,0.7-2.3,1.9-3.6,1.9  c-1.4,0-2.3-1.2-2.9-1.9c-0.7-0.9-1.3-1.6-1.3-2.8c0-1.7,2.6-3.2,4.7-4.6c2-1.1,5.9-2.9,12-2.9c7.5,0,14.5,4.2,14.5,12.3  c0,6.3-3.2,9.2-7.4,11.4c4.4,1.6,8.2,5.4,8.2,12.2C41.7,64.9,26.1,68.9,16.5,68.9L16.5,68.9z"/>
<path class="st1" d="M65.9,67.2c-0.7,0.5-2.3,1.1-3.2,1.3c-1.2,0.2-2.5,0.5-4.4,0.5c-7.5,0-12.9-5.3-12.9-14.7s5.5-14.9,12.7-14.9  c3.7,0,5.6,0.7,6.9,1.3c1.3,0.6,1.8,1,1.8,1.5c0,0.6-0.2,1.1-0.6,2c-0.7,1.1-1,1.4-1.5,1.4c-0.5,0-1.2-0.3-1.6-0.5  c-0.5-0.2-2.3-1.1-4.8-1.1c-4.6,0-7.5,3.5-7.5,10.4c0,6.8,3.4,10.2,7.5,10.2c2.9,0,4.2-0.8,5.1-1.1c0.7-0.3,0.9-0.4,1.4-0.4  c0.5,0,1,0.5,1.5,1.3c0.4,0.7,0.6,1.3,0.6,1.8C66.9,66.3,66.7,66.7,65.9,67.2L65.9,67.2z"/>
<path class="st1" d="M79.2,68.3h-8.5c-2.3,0-2.4-0.5-2.4-1.5V41.4c0-1.1,0.1-1.5,2.4-1.5H79c5.3,0,8.7,2.5,8.7,6.8  c0,3.5-1.6,5.3-3.5,6.3c2.5,0.9,5,2.9,5,7.1C89.2,65,85.5,68.3,79.2,68.3L79.2,68.3z M78.1,44h-4.9v7.2h4.5c4.3,0,4.9-1.9,4.9-3.8  C82.6,45.3,81.4,44,78.1,44L78.1,44z M78.1,55.3h-4.9v8.9h5.3c3.9,0,5.4-2.1,5.4-4.5C84,57.1,82.8,55.3,78.1,55.3L78.1,55.3z"/>
<path class="st1" d="M48.2,36c-0.1-0.1-0.2-0.3-0.2-0.7V24h-1.9c-0.8,0-0.7-0.1-0.7-0.7c0-0.6,0.1-1,0.3-1.3  c0.2-0.3,0.3-0.3,0.8-0.3h1.4v-2.4c0-1.2,0.2-2.3,0.7-3.1c0.5-0.9,1.1-1.5,1.9-1.8c0.8-0.3,1.6-0.5,2.5-0.5c1.2,0,2.1,0.2,2.6,0.4  c1.2,0.4,1.3,0.7,1.3,1c0,0.2-0.1,0.5-0.2,0.8c-0.3,0.6-0.5,0.8-0.8,0.8c-0.2,0-0.5-0.1-1-0.3c-0.5-0.2-1-0.3-1.7-0.3  c-0.7,0-1.3,0.2-1.7,0.6c-0.4,0.3-0.7,0.8-0.7,1.3s-0.1,1-0.1,1.5v2.1h3.7c0.7,0,0.7,0.1,0.7,0.7c0,0.6-0.1,1-0.3,1.3  c-0.2,0.3-0.5,0.4-0.9,0.4h-3.3v11.3c0,0.3-0.1,0.5-0.2,0.7c-0.1,0.1-0.5,0.3-1.3,0.3C48.7,36.2,48.4,36.1,48.2,36L48.2,36z"/>
<path class="st1" d="M55.4,28.9c0-4.5,3-7.5,6.9-7.5c1.5,0,2.8,0.4,3.9,1.2c1.1,0.8,1.9,1.7,2.4,2.9c0.5,1.2,0.7,2.3,0.7,3.5  c0,4.5-3,7.5-6.9,7.5C58.4,36.4,55.4,33.4,55.4,28.9L55.4,28.9z M64.6,33.2c0.7-0.6,1.1-1.2,1.4-2c0.2-0.8,0.3-1.6,0.3-2.3  c0-1.1-0.2-2-0.6-2.8c-0.4-0.8-0.9-1.4-1.5-1.8c-0.6-0.3-1.3-0.5-1.9-0.5c-2.5,0-4,2.3-4,5.1s1.5,5.1,4,5.1  C63.2,34,64,33.7,64.6,33.2L64.6,33.2z"/>
<path class="st1" d="M72.7,17.8c-0.6-0.4-0.7-0.9-0.7-1.4c0-0.3,0.1-0.6,0.3-0.9c0.4-0.6,0.9-0.8,1.5-0.8c1-0.1,1.9,1,1.7,1.8  c0,0.3-0.1,0.7-0.3,1c-0.4,0.6-1,0.8-1.4,0.8C73.4,18.1,73.1,18,72.7,17.8L72.7,17.8z M72.5,36c-0.1-0.1-0.2-0.3-0.2-0.7V22.8  c0-0.4,0.1-0.6,0.2-0.8c0.1-0.1,0.5-0.3,1.1-0.4c0.3-0.1,0.6-0.1,0.8-0.1c0.3,0,0.4,0,0.5,0.1c0.1,0.1,0.2,0.3,0.2,0.6v13.1  c0,0.3-0.1,0.6-0.2,0.7c-0.1,0.1-0.5,0.3-1.3,0.3C73,36.2,72.7,36.1,72.5,36L72.5,36z"/>
<path class="st1" d="M78.6,35.3c-0.7-0.3-0.8-0.6-0.8-0.8s0.1-0.6,0.4-1.1c0.3-0.5,0.6-0.6,0.8-0.6c0.4,0,0.9,0.3,1.2,0.5  c1,0.5,2.2,0.7,3.3,0.7c2,0,3-0.8,2.9-1.9c0-1.1-0.8-1.7-2.8-2.1l-1.1-0.2c-2.3-0.4-4.5-1.5-4.5-4.1c0-1,0.3-1.9,0.9-2.5  c0.6-0.7,1.3-1.2,2.1-1.4c0.8-0.3,1.6-0.4,2.4-0.4c1.4,0,2.6,0.2,3.9,0.7c0.8,0.3,1,0.5,1,0.8c0,0.2-0.1,0.5-0.2,0.9  c-0.2,0.5-0.4,0.8-0.8,0.8c-0.4,0-0.8-0.3-1.3-0.4c-0.8-0.2-1.8-0.4-2.8-0.4c-1.6,0-2.5,0.7-2.5,1.8c0,1,1,1.6,2.7,1.9l1.5,0.3  c2.6,0.5,4.4,1.4,4.4,4.3c0,1.1-0.3,1.9-0.9,2.6c-0.6,0.7-1.4,1.2-2.3,1.5s-1.7,0.4-2.5,0.4C80.9,36.4,79.3,35.7,78.6,35.3  L78.6,35.3z"/>
</svg>